<svg aria-hidden="true" style="position: absolute; width: 0; height: 0; overflow: hidden;" version="1.1" xmlns="http://www.w3.org/2000/svg" xmlns:xlink="http://www.w3.org/1999/xlink">
<defs>
<symbol id="icon-Logo-Color" viewBox="0 0 156 32">
<path fill="#5454d4" style="fill: var(--color1, #5454d4)" d="M23.436 14.199c-0.881 0.886-1.321 2.118-1.201 3.362l-0.021-0.021c0.124 1.463-0.404 2.907-1.443 3.945s-2.482 1.566-3.945 1.443l0.021 0.021c-1.772-0.165-3.457 0.799-4.213 2.41s-0.421 3.523 0.838 4.78 3.171 1.591 4.781 0.833c1.61-0.758 2.572-2.443 2.406-4.215l0.022 0.021c-0.123-1.463 0.404-2.907 1.443-3.945s2.482-1.566 3.945-1.443l-0.022-0.021c1.947 0.175 3.759-1.012 4.376-2.867s-0.124-3.891-1.788-4.916c-1.664-1.026-3.816-0.771-5.195 0.614h-0.003z"></path>
<path fill="#ff7143" style="fill: var(--color2, #ff7143)" d="M14.969 20.242l-0.022-0.021c1.244 0.125 2.479-0.315 3.364-1.199s1.326-2.118 1.201-3.363l0.022 0.021c-0.123-1.463 0.404-2.907 1.443-3.945s2.482-1.566 3.945-1.443l-0.022-0.021c1.772 0.166 3.458-0.796 4.215-2.407s0.423-3.523-0.835-4.781c-1.258-1.258-3.171-1.592-4.781-0.835s-2.573 2.443-2.407 4.215l-0.021-0.022c0.124 1.463-0.404 2.907-1.442 3.945s-2.482 1.566-3.945 1.442l0.021 0.022c-1.244-0.125-2.479 0.315-3.364 1.199s-1.325 2.118-1.201 3.363l-0.021-0.021c0.123 1.463-0.405 2.906-1.443 3.945s-2.481 1.566-3.945 1.443l0.021 0.021c-1.772-0.166-3.458 0.796-4.215 2.407s-0.423 3.523 0.835 4.781 3.171 1.593 4.781 0.835c1.611-0.757 2.573-2.443 2.407-4.215l0.022 0.021c-0.124-1.463 0.404-2.907 1.443-3.945s2.482-1.566 3.945-1.443z"></path>
<path fill="#5454d4" style="fill: var(--color1, #5454d4)" d="M7.277 17.939c0.881-0.886 1.321-2.118 1.199-3.362l0.022 0.021c-0.124-1.464 0.405-2.907 1.443-3.946s2.483-1.566 3.947-1.442l-0.022-0.021c1.771 0.166 3.456-0.797 4.213-2.407s0.423-3.522-0.835-4.78-3.17-1.592-4.78-0.835c-1.61 0.757-2.573 2.442-2.407 4.213l-0.021-0.021c0.124 1.463-0.404 2.907-1.443 3.945s-2.482 1.566-3.945 1.443l0.021 0.021c-1.947-0.175-3.759 1.013-4.375 2.868s0.124 3.891 1.789 4.916c1.664 1.025 3.816 0.771 5.195-0.614h-0.002z"></path>
<path fill="#19191b" style="fill: var(--color3, #19191b)" d="M42.832 6.491h3.409v16.589h-3.409v-16.589z"></path>
<path fill="#19191b" style="fill: var(--color3, #19191b)" d="M51.872 11.818c-2.25 0.94-3.711 3.143-3.701 5.581-0.012 1.599 0.62 3.135 1.752 4.263s2.671 1.753 4.27 1.735c2.438 0 4.635-1.47 5.566-3.723s0.411-4.846-1.316-6.566c-1.727-1.72-4.322-2.23-6.571-1.29zM54.145 14.857c1.434-0.026 2.622 1.108 2.662 2.542 0.039 0.711-0.222 1.406-0.718 1.916s-1.184 0.79-1.895 0.771c-1.435 0-2.601-1.156-2.615-2.59s1.132-2.612 2.566-2.638z"></path>
<path fill="#19191b" style="fill: var(--color3, #19191b)" d="M73.802 22.507v-10.789l-3.318-0.002v1.159c-0.81-0.99-2.041-1.539-3.318-1.477-3.117 0.098-5.592 2.653-5.592 5.772s2.476 5.673 5.592 5.772c1.278 0.061 2.509-0.487 3.318-1.477v1.039c0.057 0.685-0.2 1.36-0.7 1.832s-1.187 0.693-1.868 0.599c-1.077 0.11-2.11-0.46-2.591-1.431l-2.908 1.681c1.138 1.854 3.216 2.917 5.385 2.755 3.022 0 5.999-1.614 5.999-5.431zM68.865 14.545c1.025 0.462 1.667 1.502 1.62 2.626 0.021 0.726-0.265 1.427-0.789 1.929s-1.236 0.761-1.96 0.71c-1.125 0.001-2.138-0.681-2.558-1.725s-0.165-2.238 0.647-3.017c0.811-0.779 2.015-0.987 3.040-0.524z"></path>
<path fill="#19191b" style="fill: var(--color3, #19191b)" d="M79.433 11.818c-2.249 0.94-3.711 3.143-3.701 5.581-0.012 1.599 0.62 3.135 1.752 4.263s2.671 1.753 4.27 1.735c2.437 0 4.635-1.47 5.566-3.723s0.411-4.846-1.316-6.566c-1.728-1.72-4.322-2.23-6.572-1.29zM81.706 14.857c1.435-0.026 2.622 1.108 2.662 2.542 0.039 0.711-0.222 1.406-0.718 1.916s-1.184 0.79-1.895 0.771c-1.435 0-2.602-1.156-2.615-2.59s1.132-2.612 2.566-2.638z"></path>
<path fill="#19191b" style="fill: var(--color3, #19191b)" d="M90.629 6.783c-0.764 0.317-1.263 1.062-1.263 1.89 0.012 1.125 0.921 2.034 2.046 2.045 0.827 0 1.573-0.498 1.89-1.263s0.142-1.644-0.443-2.229c-0.585-0.585-1.465-0.76-2.229-0.443zM93.122 11.718h-3.41l-0.005 11.363h3.415v-11.363z"></path>
<path fill="#19191b" style="fill: var(--color3, #19191b)" d="M106.372 21.528c1.019-1.126 1.549-2.612 1.469-4.128 0.080-1.517-0.448-3.003-1.468-4.13s-2.446-1.799-3.963-1.87c-1.279-0.070-2.522 0.439-3.385 1.385v-1.067h-3.409v15.907h3.409v-5.614c0.862 0.947 2.106 1.456 3.385 1.387 1.517-0.071 2.943-0.744 3.963-1.87zM101.683 14.763c1.484-0.025 2.711 1.152 2.749 2.636 0.052 0.738-0.215 1.462-0.731 1.991s-1.234 0.813-1.972 0.78c-1.485 0-2.692-1.197-2.704-2.681s1.174-2.702 2.658-2.727z"></path>
<path fill="#19191b" style="fill: var(--color3, #19191b)" d="M118.36 19.671c0 2.614-2.272 3.727-4.726 3.727-2.028 0.184-3.964-0.888-4.886-2.704l2.953-1.681c0.246 0.846 1.050 1.404 1.928 1.341 0.817 0 1.227-0.25 1.227-0.704 0-1.251-5.591-0.591-5.591-4.522 0-2.478 2.091-3.727 4.454-3.727 1.81-0.057 3.507 0.874 4.431 2.431l-2.909 1.568c-0.261-0.608-0.859-1.002-1.522-1-0.591 0-0.955 0.23-0.955 0.636 0.005 1.296 5.595 0.432 5.595 4.636z"></path>
<path fill="#19191b" style="fill: var(--color3, #19191b)" d="M130.812 11.718v11.363h-3.409v-1.069c-0.798 0.956-2.006 1.472-3.248 1.387-2.296 0-4.247-1.636-4.247-4.706v-6.975h3.409v6.476c-0.058 0.548 0.129 1.093 0.51 1.491s0.917 0.608 1.467 0.575c1.25 0 2.114-0.727 2.114-2.34v-6.198l3.405-0.003z"></path>
<path fill="#19191b" style="fill: var(--color3, #19191b)" d="M150.359 16.103v6.976h-3.409v-6.681c0-1.136-0.545-1.863-1.635-1.863-1.136 0-1.773 0.795-1.773 2.136v6.408h-3.408v-6.681c0-1.136-0.546-1.863-1.637-1.863-1.136 0-1.773 0.795-1.773 2.136v6.408h-3.409v-11.363h3.409v1.045c0.718-0.942 1.865-1.455 3.045-1.362 1.187-0.058 2.316 0.511 2.977 1.499 0.767-1.033 2.012-1.599 3.295-1.499 2.608 0.001 4.318 1.864 4.318 4.705z"></path>
<path fill="#19191b" style="fill: var(--color3, #19191b)" d="M153.242 11.648c1.397 0 2.53-1.133 2.53-2.53s-1.132-2.53-2.53-2.53-2.53 1.133-2.53 2.53c0 1.397 1.132 2.53 2.53 2.53z"></path>
</symbol>
<symbol id="icon-arrow-down-1" viewBox="0 0 32 32">
<path stroke-linejoin="round" stroke-linecap="round" stroke-miterlimit="4" stroke-width="2" d="M16 1v30"></path>
<path stroke-linejoin="round" stroke-linecap="round" stroke-miterlimit="4" stroke-width="2" d="M2 17l14 14 14-14"></path>
</symbol>
<symbol id="icon-arrow-down2" viewBox="0 0 32 32">
<path d="M27.414 19.414l-10 10c-0.781 0.781-2.047 0.781-2.828 0l-10-10c-0.781-0.781-0.781-2.047 0-2.828s2.047-0.781 2.828 0l6.586 6.586v-19.172c0-1.105 0.895-2 2-2s2 0.895 2 2v19.172l6.586-6.586c0.39-0.39 0.902-0.586 1.414-0.586s1.024 0.195 1.414 0.586c0.781 0.781 0.781 2.047 0 2.828z"></path>
</symbol>
<symbol id="icon-Group" viewBox="0 0 137 32">
<path d="M81.542 8.436c0.647-0.287 1.404-0.155 1.916 0.334s0.679 1.239 0.422 1.899c-0.257 0.66-0.886 1.1-1.594 1.114-0.464 0.032-0.92-0.131-1.259-0.45s-0.528-0.765-0.524-1.23v-0.023c-0.018-0.708 0.392-1.357 1.040-1.644zM43.28 9.223v13.863h-3.429v-13.863h3.429zM49.989 12.377c3.246 0 5.349 2.046 5.349 5.474s-2.057 5.486-5.349 5.486c-3.291 0-5.349-2-5.349-5.486 0-3.429 2.103-5.474 5.349-5.474zM51.897 17.851c0-1.886-0.743-2.994-1.909-2.994s-1.897 1.143-1.897 2.994c0 1.851 0.72 2.971 1.897 2.971s1.909-1.051 1.909-2.96v-0.011zM59.92 23.76c0.322 0.715 1.075 1.133 1.851 1.029 1.303 0 1.989-0.709 1.989-1.737v-1.92h-0.069c-0.559 1.204-1.795 1.946-3.12 1.874-2.503 0-4.16-1.909-4.16-5.189s1.577-5.349 4.206-5.349c1.368-0.054 2.626 0.748 3.154 2.011v-1.909h3.429v10.4c0 2.503-2.206 4.057-5.463 4.057-3.029 0-4.914-1.36-5.109-3.257v-0.011h3.291zM63.771 17.84c0-1.669-0.766-2.72-1.977-2.72s-1.954 1.040-1.954 2.72c0 1.68 0.731 2.629 1.954 2.629s1.977-0.926 1.977-2.617v-0.011zM73.84 12.366c3.246 0 5.36 2.046 5.36 5.474s-2.057 5.486-5.36 5.486c-3.303 0-5.349-1.989-5.349-5.474v-0.011c0-3.429 2.103-5.474 5.349-5.474zM75.749 17.84c0-1.886-0.743-2.994-1.909-2.994s-1.84 1.154-1.84 3.017c0 1.863 0.72 2.971 1.886 2.971s1.863-1.063 1.863-2.971v-0.023zM80.503 12.594v10.491h3.429v-10.491h-3.429zM92.251 23.223c-1.369 0.088-2.647-0.688-3.2-1.943h-0.069v5.166h-3.429v-13.874h3.429v1.874h0.069c0.528-1.276 1.798-2.084 3.177-2.023 2.629 0.046 4.194 2.011 4.194 5.44l-0.046-0.023c0 3.429-1.52 5.383-4.126 5.383zM92.949 17.84c0-1.669-0.766-2.731-1.966-2.731s-1.966 1.074-1.977 2.731c-0.011 1.657 0.777 2.72 1.977 2.72s1.966-1.040 1.966-2.697v-0.023zM106.914 15.863c-0.080-2.16-1.806-3.509-4.651-3.509v0.023c-2.834 0-4.674 1.337-4.697 3.394 0 1.6 1.074 2.686 3.12 3.109l1.977 0.423c0.823 0.171 1.143 0.286 1.143 0.834s-0.457 0.88-1.463 0.88c-1.006 0-1.623-0.457-1.726-1.234h-3.303c0.149 2.137 2.057 3.531 4.971 3.531s4.891-1.394 4.891-3.566c0-1.589-0.891-2.434-2.983-2.88l-2.194-0.446c-0.766-0.16-1.143-0.331-1.143-0.869s0.423-0.903 1.371-0.903c0.949 0 1.566 0.469 1.566 1.211h3.12zM118.617 23.063h-3.303v-1.954h-0.069c-0.374 1.352-1.64 2.261-3.040 2.183-1.054 0.060-2.082-0.34-2.819-1.096s-1.109-1.795-1.021-2.847v-6.777h3.429v5.989c0 1.246 0.64 1.909 1.703 1.909 0.504 0.001 0.984-0.216 1.317-0.594 0.334-0.379 0.487-0.883 0.421-1.383v-5.92h3.429l-0.046 10.491zM123.589 12.571h-3.314l-0.057 10.514h3.429v-6.183c-0.053-0.435 0.085-0.871 0.375-1.199s0.707-0.515 1.145-0.515c0.937 0 1.451 0.571 1.451 1.623v6.274h3.257v-6.206c-0.056-0.43 0.077-0.862 0.363-1.187s0.701-0.508 1.134-0.505c0.96 0 1.474 0.526 1.474 1.669v6.229h3.429v-7.143c0.069-0.941-0.266-1.867-0.92-2.547s-1.566-1.050-2.509-1.019c-1.47-0.063-2.797 0.877-3.223 2.286h-0.069c-0.227-1.405-1.496-2.399-2.914-2.286-1.383-0.025-2.609 0.886-2.983 2.217h-0.069v-2.023z"></path>
<path d="M27.977 6.171c0.934 1.111 1.704 2.35 2.286 3.68 0.847 1.939 1.283 4.033 1.28 6.149-0.006 8.541-6.922 15.467-15.463 15.486-1.987-0.001-3.955-0.389-5.794-1.143-1.312-0.521-2.543-1.225-3.657-2.091-4.739-3.612-6.982-9.626-5.764-15.459s5.679-10.447 11.468-11.861c5.789-1.414 11.875 0.625 15.644 5.24zM21.234 4.789c-1.618-0.753-3.381-1.143-5.166-1.143l0.011-0.023c-4.232-0.003-8.171 2.162-10.435 5.737s-2.541 8.061-0.73 11.886c0.516-0.542 0.834-1.243 0.903-1.989 0.416-2.872 2.671-5.127 5.543-5.543 1.62-0.147 2.914-1.412 3.097-3.029 0.416-2.872 2.671-5.127 5.543-5.543 0.425-0.065 0.84-0.184 1.234-0.354zM6.617 24c0.046-0.042 0.091-0.082 0.137-0.123h0c0.091-0.081 0.183-0.163 0.274-0.254 1.017-0.986 1.669-2.287 1.851-3.691 0.074-0.789 0.426-1.527 0.994-2.080 0.547-0.569 1.282-0.919 2.069-0.983 2.872-0.416 5.127-2.671 5.543-5.543 0.049-0.826 0.404-1.604 0.994-2.183 0.56-0.558 1.303-0.895 2.091-0.949 1.284-0.177 2.482-0.748 3.429-1.634 1.077 0.894 1.99 1.969 2.697 3.177-0.043 0.059-0.093 0.112-0.149 0.16-0.546 0.574-1.28 0.931-2.069 1.006-2.875 0.409-5.134 2.668-5.543 5.543-0.166 1.622-1.452 2.903-3.074 3.063-2.88 0.412-5.147 2.666-5.577 5.543-0.062 0.559-0.253 1.095-0.56 1.566-1.173-0.696-2.223-1.58-3.109-2.617zM12.64 27.931c1.115 0.32 2.269 0.481 3.429 0.48v-0.057c3.827-0.015 7.432-1.801 9.762-4.838s3.122-6.981 2.146-10.682c-0.868 0.614-1.872 1.006-2.926 1.143-1.618 0.165-2.898 1.445-3.063 3.063-0.417 2.875-2.678 5.132-5.554 5.543-1.618 0.165-2.898 1.445-3.063 3.063-0.102 0.8-0.35 1.575-0.731 2.286z"></path>
</symbol>
<symbol id="icon-Group-1" viewBox="0 0 132 32">
<path d="M28.512 11.424c0.384 0 0.512 0.139 0.512 0.512v8.448h4.341c0.373 0 0.512 0.139 0.512 0.512v0.747c0 0.373-0.139 0.512-0.512 0.512h-5.717c-0.373 0-0.523-0.139-0.523-0.512v-9.707c0-0.373 0.149-0.512 0.523-0.512h0.864z"></path>
<path d="M41.931 11.2c-2.709 0-4.267 1.483-4.267 3.947v3.285c0 2.464 1.568 3.947 4.267 3.947s4.267-1.483 4.267-3.947v-3.285c0-2.464-1.557-3.947-4.267-3.947zM41.984 13.013c1.557 0 2.421 0.747 2.421 2.133v3.307c0 1.365-0.864 2.133-2.421 2.133s-2.411-0.736-2.411-2.133v-3.307c0-1.376 0.853-2.133 2.411-2.133z"></path>
<path d="M58.901 16.277c0.416 0 0.512 0.139 0.512 0.512v2.027c0.023 0.967-0.393 1.892-1.131 2.517-0.905 0.721-2.046 1.078-3.2 1.003-2.763 0-4.267-1.483-4.267-3.947v-3.307c0-2.432 1.557-3.925 4.267-3.925 2.133 0 3.52 0.843 4.107 2.528 0.067 0.128 0.069 0.281 0.006 0.411s-0.184 0.223-0.326 0.25l-0.832 0.288c-0.363 0.128-0.512 0.053-0.64-0.32-0.364-0.937-1.317-1.508-2.315-1.387-1.568 0-2.421 0.757-2.421 2.133v3.392c0 1.397 0.864 2.133 2.421 2.133s2.517-0.715 2.517-1.76v-0.789h-2.315c-0.384 0-0.523-0.149-0.523-0.523v-0.725c0-0.373 0.139-0.512 0.523-0.512h3.616z"></path>
<path d="M68.085 11.2c-2.709 0-4.267 1.483-4.267 3.947v3.285c0 2.464 1.568 3.947 4.267 3.947s4.267-1.483 4.267-3.947v-3.285c0-2.464-1.557-3.947-4.267-3.947zM68.139 13.013c1.547 0 2.411 0.747 2.411 2.133v3.307c0 1.365-0.853 2.133-2.411 2.133s-2.421-0.736-2.421-2.133v-3.307c0-1.376 0.875-2.133 2.421-2.133z"></path>
<path d="M77.376 11.733c0-0.235 0.075-0.309 0.309-0.309h0.491c0.235 0 0.288 0.075 0.288 0.309v10.112c0 0.235 0 0.309-0.288 0.309h-0.491c-0.235 0-0.309-0.075-0.309-0.309v-10.112z"></path>
<path d="M91.531 14.773c0-1.85-1.5-3.349-3.349-3.349h-3.979c-0.224 0-0.309 0.075-0.309 0.309v10.112c0 0.235 0.085 0.309 0.309 0.309h0.501c0.224 0 0.277-0.075 0.277-0.309v-3.723h3.2c1.85 0 3.349-1.5 3.349-3.349zM90.099 15.904c-0.415 0.719-1.183 1.163-2.014 1.163h-3.2v-4.651h3.2c0.831 0 1.598 0.443 2.014 1.163s0.415 1.606 0 2.325z"></path>
<path d="M99.861 11.211c1.691-0.187 3.304 0.759 3.968 2.325 0.085 0.171 0 0.309-0.171 0.395l-0.469 0.213c-0.192 0.075-0.267 0.064-0.384-0.139-0.496-1.162-1.686-1.869-2.944-1.749-1.803 0-2.784 0.715-2.784 1.995-0.022 0.809 0.556 1.51 1.355 1.643 0.574 0.187 1.169 0.302 1.771 0.341 0.729 0.039 1.448 0.186 2.133 0.437 1.083 0.343 1.778 1.398 1.664 2.528 0 1.995-1.451 3.2-4.117 3.2-1.802 0.206-3.504-0.873-4.085-2.592-0.038-0.077-0.040-0.167-0.005-0.245s0.103-0.137 0.186-0.16l0.469-0.171c0.075-0.030 0.159-0.028 0.232 0.006s0.128 0.098 0.152 0.175c0.49 1.237 1.724 2.013 3.051 1.92 2.016 0 3.008-0.704 3.008-2.133 0.039-0.776-0.489-1.466-1.248-1.632-0.552-0.165-1.121-0.265-1.696-0.299l-1.152-0.149c-0.361-0.076-0.717-0.173-1.067-0.288-0.346-0.104-0.668-0.275-0.949-0.501-0.573-0.519-0.885-1.265-0.853-2.037 0.075-1.867 1.472-3.083 3.936-3.083z"></path>
<path d="M109.749 18.507c0.094 1.566 1.391 2.788 2.96 2.788s2.866-1.222 2.96-2.788v-6.773c0-0.235 0.075-0.309 0.309-0.309h0.491c0.235 0 0.309 0.075 0.309 0.309v6.763c0 2.421-1.429 3.883-4.064 3.883s-4.064-1.461-4.064-3.883v-6.763c0-0.235 0.075-0.309 0.299-0.309h0.501c0.224 0 0.299 0.075 0.299 0.309v6.773z"></path>
<path d="M131.499 11.424c0.235 0 0.309 0.075 0.309 0.309v10.112c0 0.235-0.075 0.309-0.309 0.309h-0.448c-0.224 0-0.299-0.075-0.299-0.309v-6.155c0-0.896 0.061-1.79 0.181-2.677h-0.064c-0.333 0.811-0.722 1.599-1.163 2.357l-2.293 4.043c-0.058 0.144-0.197 0.237-0.352 0.235h-0.299c-0.157 0.001-0.299-0.091-0.363-0.235l-2.325-4.085c-0.413-0.748-0.769-1.525-1.067-2.325h-0.064c0.109 0.895 0.166 1.797 0.171 2.699v6.144c0 0.235-0.075 0.309-0.309 0.309h-0.416c-0.235 0-0.309-0.075-0.309-0.309v-10.112c0-0.235 0.075-0.309 0.309-0.309h0.384c0.18-0.017 0.351 0.082 0.427 0.245l3.733 6.635 3.712-6.571c0.117-0.224 0.181-0.256 0.416-0.256l0.437-0.053z"></path>
<path d="M2.464 1.803v21.664c0 0.266-0.106 0.521-0.294 0.709s-0.443 0.294-0.709 0.294h-0.235c-0.554 0-1.003-0.449-1.003-1.003v-21.664c0.006-0.55 0.453-0.992 1.003-0.992h0.235c0.55-0 0.997 0.442 1.003 0.992zM14.763 15.536c0.212-0.202 0.497-0.308 0.789-0.293l-0.053 0.021c0.31-0.032 0.619 0.074 0.845 0.29s0.346 0.519 0.329 0.83v5.867c0 0.619-0.501 1.12-1.12 1.12s-1.12-0.501-1.12-1.12v-5.941c-0-0.292 0.119-0.572 0.331-0.774zM17.963 18.624c0-0.589 0.478-1.067 1.067-1.067 0.309-0.028 0.614 0.079 0.838 0.294s0.342 0.517 0.325 0.826v1.291c0 0.616-0.499 1.115-1.115 1.115s-1.115-0.499-1.115-1.115v-1.344zM9.536 27.499v-7.712c-0.334 0.254-0.744 0.385-1.163 0.373-0.384-0.009-0.756-0.136-1.067-0.363v7.701c0 0.616 0.499 1.115 1.115 1.115s1.115-0.499 1.115-1.115zM4.885 22.709c-0.384-0.012-0.755-0.138-1.067-0.363v7.733c0 0.619 0.501 1.12 1.12 1.12s1.12-0.501 1.12-1.12v-7.68c-0.348 0.225-0.759 0.334-1.173 0.309zM12.011 17.525c-0.402-0.003-0.793-0.129-1.12-0.363v7.755c0 0.619 0.501 1.12 1.12 1.12s1.12-0.501 1.12-1.12v-7.744c-0.338 0.252-0.751 0.383-1.173 0.373l0.053-0.021zM5.003 21.888h-0.235c-0.554 0-1.003-0.449-1.003-1.003v-16.501c0.006-0.55 0.453-0.992 1.003-0.992h0.235c0.55-0 0.997 0.442 1.003 0.992v16.523c0 0.554-0.449 1.003-1.003 1.003v-0.021zM8.288 19.349h0.245c0.548 0 0.992-0.444 0.992-0.992v-11.413c0-0.55-0.442-0.997-0.992-1.003h-0.245c-0.265 0-0.519 0.106-0.705 0.294s-0.29 0.443-0.287 0.708v11.413c0 0.548 0.444 0.992 0.992 0.992zM12.064 16.736h-0.224c-0.55 0-0.997-0.442-1.003-0.992v-6.144c-0.018-0.277 0.080-0.549 0.27-0.751s0.455-0.316 0.733-0.316h0.235c0.554 0 1.003 0.449 1.003 1.003v6.187c0.003 0.268-0.102 0.526-0.29 0.716s-0.445 0.297-0.713 0.297h-0.011zM15.371 14.443h0.245c0.55-0.006 0.992-0.453 0.992-1.003v-1.589c-0.006-0.55-0.453-0.992-1.003-0.992h-0.235c-0.55 0-0.997 0.442-1.003 0.992v1.589c0 0.554 0.449 1.003 1.003 1.003z"></path>
</symbol>
<symbol id="icon-Group-2" viewBox="0 0 67 32">
<path d="M0.527 19.193h2v9.807h-2v-9.807z"></path>
<path d="M5.88 22.346c-1.33 0.553-2.196 1.853-2.193 3.294-0.009 0.946 0.363 1.856 1.033 2.525s1.581 1.039 2.527 1.028c1.441 0 2.739-0.868 3.29-2.199s0.245-2.863-0.775-3.88c-1.020-1.018-2.552-1.321-3.882-0.767zM7.221 24.134c0.849-0.015 1.551 0.658 1.573 1.506 0.023 0.42-0.132 0.831-0.426 1.132s-0.7 0.466-1.121 0.454c-0.849-0-1.539-0.685-1.546-1.534s0.671-1.545 1.52-1.559z"></path>
<path d="M18.847 28.667v-6.387l-1.967 0.020v0.667c-0.479-0.584-1.205-0.908-1.96-0.873-1.885 0-3.413 1.528-3.413 3.413s1.528 3.413 3.413 3.413c0.755 0.038 1.483-0.287 1.96-0.873v0.62c0.039 0.412-0.116 0.819-0.419 1.101s-0.72 0.407-1.128 0.339c-0.626 0.052-1.221-0.284-1.5-0.847l-1.72 0.993c0.672 1.094 1.899 1.722 3.18 1.627 1.787 0 3.553-0.953 3.553-3.213zM15.923 23.957c0.605 0.273 0.984 0.886 0.957 1.55 0.012 0.429-0.157 0.844-0.467 1.141s-0.731 0.449-1.159 0.419c-0.664-0.001-1.261-0.404-1.508-1.021s-0.096-1.321 0.384-1.78c0.479-0.459 1.189-0.582 1.795-0.309z"></path>
<path d="M22.193 22.346c-1.33 0.553-2.196 1.853-2.193 3.294-0.009 0.946 0.363 1.856 1.033 2.525s1.581 1.039 2.527 1.028c1.441 0 2.739-0.868 3.29-2.199s0.245-2.863-0.775-3.88c-1.020-1.018-2.552-1.321-3.882-0.767zM23.534 24.134c0.849-0.015 1.551 0.658 1.573 1.506h-0.013c0.022 0.418-0.13 0.826-0.421 1.127s-0.694 0.467-1.112 0.459c-0.849-0-1.539-0.685-1.546-1.534s0.671-1.545 1.52-1.559z"></path>
<path d="M29.26 19.267c-0.67 0-1.213 0.543-1.213 1.213 0.004 0.669 0.545 1.21 1.213 1.213 0.67 0 1.213-0.543 1.213-1.213s-0.543-1.213-1.213-1.213zM30.253 22.28h-2v6.72h2v-6.72z"></path>
<path d="M38.109 28.084c0.602-0.667 0.913-1.547 0.864-2.444 0.047-0.896-0.265-1.774-0.866-2.44s-1.444-1.064-2.34-1.107c-0.755-0.036-1.488 0.264-2 0.82v-0.633h-2v9.427h2v-3.333c0.512 0.556 1.245 0.856 2 0.82 0.898-0.043 1.741-0.442 2.343-1.109zM35.36 24.081c0.873-0.007 1.591 0.687 1.613 1.559h-0.013c0.032 0.442-0.129 0.875-0.441 1.19s-0.744 0.479-1.186 0.45c-0.873-0.022-1.567-0.74-1.559-1.613s0.713-1.579 1.586-1.586z"></path>
<path d="M45.2 26.987c0 1.547-1.333 2.207-2.8 2.207-1.199 0.106-2.341-0.527-2.887-1.6l1.747-0.993c0.146 0.5 0.621 0.83 1.14 0.793 0.487 0 0.727-0.153 0.727-0.42 0-0.74-3.333-0.347-3.333-2.667 0-1.467 1.24-2.207 2.667-2.207 1.072-0.033 2.078 0.519 2.627 1.44l-1.753 0.92c-0.158-0.36-0.514-0.592-0.907-0.593-0.347 0-0.56 0.133-0.56 0.38 0.027 0.767 3.333 0.253 3.333 2.74z"></path>
<path d="M52.56 22.28v6.72h-2v-0.627c-0.472 0.565-1.186 0.87-1.92 0.82-1.333 0-2.513-0.967-2.513-2.787v-4.127h2v3.833c-0.036 0.331 0.080 0.66 0.314 0.897s0.562 0.355 0.893 0.323c0.733 0 1.247-0.427 1.247-1.38v-3.673h1.98z"></path>
<path d="M64.12 24.88v4.12h-2v-3.947c0-0.667-0.327-1.107-0.967-1.107s-1.053 0.473-1.053 1.267v3.787h-2v-3.947c0-0.667-0.32-1.107-0.967-1.107s-1.047 0.473-1.047 1.267v3.787h-2v-6.72h2v0.62c0.425-0.556 1.102-0.86 1.8-0.807 0.702-0.034 1.37 0.303 1.76 0.887 0.454-0.61 1.189-0.945 1.947-0.887 1.52 0 2.527 1.107 2.527 2.787z"></path>
<path d="M65.827 22.24c0.825 0 1.493-0.669 1.493-1.493s-0.669-1.493-1.493-1.493c-0.825 0-1.493 0.669-1.493 1.493s0.669 1.493 1.493 1.493z"></path>
<path d="M23.16 14.107c3.862 0 6.993-3.131 6.993-6.993s-3.131-6.993-6.993-6.993c-3.862 0-6.993 3.131-6.993 6.993s3.131 6.993 6.993 6.993z"></path>
<path d="M38.793 14.107c3.862 0 6.993-3.131 6.993-6.993s-3.131-6.993-6.993-6.993c-3.862 0-6.993 3.131-6.993 6.993s3.131 6.993 6.993 6.993z"></path>
<path d="M0.54 0.12h13.98v13.98h-13.98v-13.98z"></path>
</symbol>
<symbol id="icon-Group-3" viewBox="0 0 157 32">
<path d="M50.507 25.853c-0.793 0.043-1.577-0.183-2.227-0.64-0.551-0.408-0.865-1.062-0.84-1.747v-12.36c-0.013-0.106 0.023-0.212 0.099-0.288s0.182-0.112 0.288-0.099h2.24c0.253 0 0.373 0.133 0.373 0.387v11.4c0 0.507 0.227 0.76 0.693 0.76 0.198 0.008 0.396-0.014 0.587-0.067 0.267 0 0.413 0.080 0.427 0.32l0.2 1.667c0.019 0.098-0.005 0.2-0.066 0.279s-0.154 0.128-0.254 0.134c-0.491 0.162-1.003 0.247-1.52 0.253z"></path>
<path d="M55.107 24.427c2.322 1.918 5.678 1.918 8 0v-0.013c2.008-2.094 2.008-5.399 0-7.493-2.325-1.908-5.675-1.908-8 0-2.059 2.079-2.059 5.428 0 7.507zM61.027 22.667c-1.082 0.98-2.731 0.98-3.813 0-0.977-1.124-0.977-2.796 0-3.92 1.082-0.98 2.731-0.98 3.813 0 0.977 1.124 0.977 2.796 0 3.92z"></path>
<path d="M77.32 16.213c0-0.253-0.12-0.387-0.373-0.387l-2.213 0.013c-0.104-0.009-0.206 0.030-0.279 0.105s-0.107 0.179-0.095 0.282v0.213c-0.814-0.622-1.816-0.947-2.84-0.92-1.405-0.050-2.77 0.469-3.787 1.44-1.998 2.067-1.998 5.346 0 7.413 1.012 0.98 2.379 1.505 3.787 1.453 0.995 0.028 1.971-0.277 2.773-0.867v0.84c0.027 0.618-0.199 1.22-0.627 1.667-0.468 0.427-1.088 0.648-1.72 0.613-0.519 0.010-1.032-0.109-1.493-0.347-0.378-0.205-0.668-0.542-0.813-0.947-0.073-0.18-0.246-0.3-0.44-0.307h-2.24c-0.36 0-0.36 0.12-0.36 0.387 0.188 1.093 0.82 2.058 1.747 2.667 1.073 0.696 2.335 1.045 3.613 1 1.415 0.062 2.802-0.414 3.88-1.333 0.984-0.861 1.527-2.12 1.48-3.427v-9.56zM73.6 22.667c-0.462 0.52-1.131 0.808-1.827 0.787-0.703 0.020-1.38-0.267-1.853-0.787-0.478-0.549-0.731-1.259-0.707-1.987-0.029-0.735 0.229-1.452 0.72-2 0.473-0.521 1.15-0.809 1.853-0.787 0.689-0.023 1.353 0.26 1.813 0.773 0.912 1.177 0.912 2.823 0 4z"></path>
<path d="M80.827 24.427c2.325 1.908 5.675 1.908 8 0v-0.013c2.008-2.094 2.008-5.399 0-7.493-2.327-1.903-5.673-1.903-8 0-2.010 2.099-2.010 5.408 0 7.507zM84.84 23.4c-0.712 0.022-1.404-0.242-1.92-0.733-0.96-1.13-0.96-2.79 0-3.92 0.516-0.491 1.208-0.755 1.92-0.733 0.708-0.018 1.394 0.245 1.907 0.733 0.961 1.13 0.961 2.79 0 3.92-0.513 0.488-1.199 0.752-1.907 0.733z"></path>
<path d="M92.6 13.56c0.729 0.638 1.818 0.638 2.547 0 0.323-0.305 0.506-0.729 0.506-1.173s-0.183-0.869-0.506-1.173c-0.735-0.621-1.811-0.621-2.547 0-0.323 0.305-0.506 0.729-0.506 1.173s0.183 0.869 0.506 1.173zM93.2 25.213c0.651 0.454 1.434 0.679 2.227 0.64 0.521-0.005 1.038-0.090 1.533-0.253 0.1-0.006 0.193-0.055 0.254-0.134s0.085-0.181 0.066-0.279l-0.2-1.667c-0.013-0.24-0.16-0.32-0.427-0.32-0.196 0.051-0.398 0.074-0.6 0.067-0.453 0-0.68-0.253-0.68-0.76v-6.293c0-0.253-0.12-0.387-0.373-0.387h-2.24c-0.106-0.013-0.212 0.023-0.288 0.099s-0.112 0.182-0.099 0.288v7.253c-0.023 0.682 0.285 1.333 0.827 1.747z"></path>
<path d="M109.333 16.947c-1.024-0.976-2.4-1.496-3.813-1.44-1.234-0.027-2.425 0.455-3.293 1.333-0.458-0.894-1.412-1.422-2.413-1.333-0.491-0.009-0.979 0.072-1.44 0.24-0.193 0.056-0.321 0.239-0.307 0.44v1.573c0 0.213 0.147 0.32 0.44 0.32h0.44c0.217-0.032 0.436 0.041 0.591 0.196s0.228 0.374 0.196 0.591v10.933c-0.019 0.104 0.014 0.211 0.088 0.285s0.181 0.108 0.285 0.088h2.24c0.253 0 0.387-0.12 0.387-0.373v-4.813c0.81 0.585 1.788 0.889 2.787 0.867 1.416 0.057 2.794-0.468 3.813-1.453 1.956-2.099 1.956-5.354 0-7.453zM105.28 23.453c-0.695 0-1.36-0.284-1.84-0.786-0.482-0.568-0.734-1.296-0.707-2.040-0.031-0.745 0.222-1.474 0.707-2.040 0.48-0.502 1.145-0.786 1.84-0.786s1.36 0.284 1.84 0.786c0.505 0.556 0.768 1.29 0.733 2.040 0.031 0.75-0.233 1.481-0.733 2.040-0.48 0.502-1.145 0.786-1.84 0.786z"></path>
<path d="M117.093 25.853c-1.197 0.049-2.384-0.237-3.427-0.827-0.848-0.511-1.417-1.379-1.547-2.36 0-0.267 0.093-0.4 0.387-0.4h1.96c0.19 0.007 0.36 0.121 0.44 0.293 0.28 0.72 1.013 1.080 2.187 1.080 0.409 0.019 0.817-0.064 1.187-0.24 0.26-0.117 0.434-0.369 0.453-0.653 0-0.347-0.213-0.587-0.64-0.747-0.506-0.168-1.029-0.28-1.56-0.333-0.629-0.071-1.252-0.183-1.867-0.333-0.598-0.135-1.141-0.446-1.56-0.893-0.499-0.614-0.72-1.408-0.612-2.191s0.538-1.487 1.185-1.942c0.961-0.612 2.089-0.91 3.227-0.853 1.102-0.037 2.192 0.235 3.147 0.787 0.779 0.441 1.318 1.21 1.467 2.093 0 0.267-0.12 0.4-0.36 0.4h-1.973c-0.17 0.010-0.329-0.085-0.4-0.24-0.132-0.316-0.38-0.569-0.693-0.707-0.353-0.185-0.748-0.277-1.147-0.267-0.391-0.021-0.781 0.057-1.133 0.227-0.254 0.098-0.423 0.341-0.427 0.613 0.017 0.374 0.277 0.693 0.64 0.787 0.512 0.193 1.044 0.327 1.587 0.4 0.624 0.082 1.242 0.198 1.853 0.347 0.598 0.135 1.141 0.446 1.56 0.893 0.453 0.497 0.688 1.155 0.653 1.827 0.023 0.938-0.447 1.819-1.24 2.32-0.996 0.64-2.163 0.96-3.347 0.92z"></path>
<path d="M135.773 25.187c0.015 0.096-0.009 0.193-0.067 0.271s-0.144 0.129-0.24 0.142c-0.487 0.159-0.995 0.244-1.507 0.253-1.031 0.107-2.042-0.333-2.667-1.16-0.942 0.81-2.16 1.225-3.4 1.16-1.165 0.054-2.298-0.387-3.12-1.213-0.816-0.865-1.245-2.025-1.187-3.213v-5.213c0-0.253 0.12-0.387 0.373-0.387h2.24c0.253 0 0.373 0.133 0.373 0.387v4.813c-0.024 0.6 0.181 1.186 0.573 1.64 0.397 0.421 0.956 0.649 1.533 0.627 0.59 0.026 1.166-0.185 1.6-0.587 0.411-0.423 0.628-0.998 0.6-1.587v-4.907c0-0.253 0.12-0.387 0.373-0.387h2.267c0.253 0 0.373 0.133 0.373 0.387v6.28c0 0.52 0.227 0.773 0.667 0.773 0.207 0.008 0.413-0.015 0.613-0.067 0.103-0.029 0.212-0.009 0.297 0.053s0.139 0.161 0.143 0.267l0.16 1.667z"></path>
<path d="M156.96 25.187c0.024 0.097 0.004 0.199-0.056 0.279-0.059 0.080-0.151 0.129-0.251 0.134-0.496 0.161-1.012 0.247-1.533 0.253-0.793 0.041-1.576-0.184-2.227-0.64-0.571-0.396-0.907-1.052-0.893-1.747v-3.133c0.028-0.598-0.172-1.184-0.56-1.64-0.379-0.422-0.927-0.652-1.493-0.627-0.511-0.019-1.003 0.197-1.333 0.587-0.352 0.447-0.532 1.005-0.507 1.573v4.92c0 0.253-0.12 0.387-0.373 0.387h-2.253c-0.107 0.013-0.212-0.023-0.288-0.099s-0.112-0.182-0.099-0.288v-4.813c0.029-0.591-0.156-1.173-0.52-1.64-0.329-0.397-0.817-0.626-1.333-0.627-0.551-0.022-1.084 0.191-1.467 0.587-0.381 0.433-0.577 0.997-0.547 1.573v4.92c0.013 0.106-0.024 0.212-0.099 0.288-0.076 0.076-0.183 0.112-0.288 0.099h-2.173c-0.253 0-0.373-0.133-0.373-0.387v-6.28c0.032-0.217-0.041-0.436-0.196-0.591s-0.373-0.228-0.591-0.196h-0.44c-0.293 0-0.44-0.107-0.44-0.32v-1.573c-0.015-0.201 0.113-0.384 0.307-0.44 0.461-0.168 0.949-0.249 1.44-0.24 0.961-0.082 1.884 0.395 2.373 1.227 0.909-0.862 2.136-1.306 3.387-1.227 1.219-0.059 2.392 0.465 3.16 1.413 0.893-0.971 2.176-1.49 3.493-1.413 1.176-0.055 2.323 0.385 3.16 1.213 0.819 0.864 1.248 2.025 1.187 3.213v2.573c0 0.507 0.227 0.76 0.653 0.76 0.207 0.010 0.413-0.013 0.613-0.067 0.276 0 0.423 0.107 0.44 0.32l0.12 1.667z"></path>
<path d="M0.613 14.093c2.024-8.136 9.33-13.846 17.713-13.846s15.689 5.711 17.713 13.846h-1.6c-2.699-0.040-5.343 0.767-7.56 2.307-0.128 0.093-0.261 0.177-0.4 0.253h-0.187c-0.138-0.076-0.272-0.161-0.4-0.253-4.575-3.077-10.558-3.077-15.133 0-0.128 0.093-0.262 0.177-0.4 0.253h-0.187c-0.138-0.076-0.272-0.161-0.4-0.253-2.217-1.54-4.861-2.346-7.56-2.307h-1.6zM31.56 22.453c0.821-0.64 1.839-0.974 2.88-0.947h2.147v-4.28h-2.147c-1.833-0.022-3.624 0.548-5.107 1.627-1.712 1.263-4.047 1.263-5.76 0-3.113-2.167-7.247-2.167-10.36 0-1.712 1.263-4.048 1.263-5.76 0-1.501-1.092-3.318-1.663-5.173-1.627h-2.213v4.28h2.147c1.041-0.028 2.059 0.307 2.88 0.947 3.108 2.169 7.239 2.169 10.347 0 0.822-0.638 1.84-0.972 2.88-0.947 1.041-0.030 2.060 0.305 2.88 0.947 3.113 2.167 7.247 2.167 10.36 0zM34.44 29.16c-1.041-0.028-2.059 0.307-2.88 0.947-3.113 2.167-7.247 2.167-10.36 0-0.82-0.642-1.839-0.977-2.88-0.947-1.040-0.025-2.058 0.309-2.88 0.947-3.108 2.169-7.239 2.169-10.347 0-0.821-0.64-1.839-0.974-2.88-0.947h-2.147v-4.28h2.213c1.856-0.037 3.673 0.535 5.173 1.627 1.712 1.263 4.048 1.263 5.76 0 3.113-2.167 7.247-2.167 10.36 0 1.713 1.263 4.048 1.263 5.76 0 1.483-1.078 3.274-1.649 5.107-1.627h2.147v4.28h-2.147z"></path>
</symbol>
<symbol id="icon-Group-4" viewBox="0 0 137 32">
<path d="M80.76 9.084c0.651-0.294 1.415-0.164 1.931 0.33s0.68 1.252 0.414 1.915c-0.266 0.663-0.908 1.098-1.622 1.098-0.451 0.011-0.887-0.158-1.212-0.471s-0.511-0.742-0.516-1.193l-0.021-0.011c-0.031-0.714 0.376-1.374 1.027-1.668zM42.368 9.877v13.867h-3.424v-13.867h3.424zM49.067 13.035c3.2 0 5.333 2.059 5.333 5.493s-2.059 5.515-5.333 5.515c-3.275 0-5.333-2.005-5.333-5.515 0-3.435 2.133-5.493 5.333-5.493zM51.008 18.528c0-1.888-0.736-2.997-1.909-2.997s-1.899 1.067-1.899 2.997c0 1.931 0.725 2.987 1.899 2.987s1.931-1.056 1.931-2.976l-0.021-0.011zM59.072 24.459c0.309 0.732 1.068 1.168 1.856 1.067 1.312 0 1.995-0.704 1.995-1.749v-1.898c-0.583 1.21-1.848 1.943-3.189 1.844-2.507 0-4.171-1.909-4.171-5.195s1.589-5.333 4.267-5.333c1.309-0.070 2.525 0.646 3.104 1.806v-1.72h3.392v10.389c0 2.507-2.219 4.075-5.483 4.075-2.965-0.011-4.864-1.365-5.056-3.275l-0.021-0.011h3.307zM62.933 18.528c0-1.675-0.768-2.731-1.984-2.731s-1.963 1.067-1.963 2.731c0 1.664 0.736 2.645 1.963 2.645s1.984-0.907 1.984-2.645zM73.013 13.035c3.2 0 5.333 2.059 5.333 5.493s-2.069 5.515-5.333 5.515c-3.264 0-5.312-2.005-5.312-5.515h-0.021c0-3.435 2.133-5.493 5.333-5.493zM74.955 18.528c0-1.888-0.747-2.997-1.909-2.997s-1.899 1.067-1.899 2.997c0 1.931 0.725 2.987 1.899 2.987s1.931-1.056 1.931-2.976l-0.021-0.011zM79.733 13.269l0.053 10.517h3.413v-10.517h-3.467zM91.52 23.936c-1.37 0.084-2.648-0.695-3.2-1.952h-0.064v5.184h-3.424v-13.867h3.403v1.877h0.064c0.533-1.282 1.813-2.093 3.2-2.027 2.688-0.021 4.235 1.952 4.235 5.387l-0.064-0.011c0 3.424-1.536 5.408-4.149 5.408zM92.181 18.528c0-1.664-0.779-2.741-1.984-2.741s-1.963 1.067-1.973 2.741c-0.011 1.675 0.768 2.731 1.973 2.731s2.048-0.992 2.048-2.72l-0.064-0.011zM106.187 16.555c-0.021-2.176-1.803-3.531-4.672-3.531l0.064 0.011c-2.891 0-4.683 1.333-4.747 3.424 0 1.611 1.077 2.688 3.136 3.125l1.984 0.416c0.821 0.171 1.141 0.267 1.141 0.832s-0.469 0.885-1.472 0.885c-1.003 0-1.621-0.459-1.717-1.237h-3.317c0.139 2.144 2.048 3.552 4.981 3.552s4.907-1.451 4.907-3.584c0-1.589-0.853-2.443-2.987-2.891l-2.197-0.448c-0.789-0.16-1.184-0.331-1.184-0.875s0.448-0.907 1.387-0.907c0.939 0 1.568 0.469 1.568 1.227h3.125zM117.941 23.776h-3.317v-1.973h-0.064c-0.383 1.356-1.654 2.265-3.061 2.187-1.043 0.034-2.050-0.379-2.769-1.135-0.72-0.756-1.082-1.783-0.996-2.823v-6.752h3.424v6.016c0 1.237 0.651 1.909 1.717 1.909 0.507-0.004 0.987-0.227 1.315-0.611 0.33-0.385 0.476-0.893 0.402-1.394v-5.92h3.413l-0.064 10.496zM122.923 13.269h-3.328l0.021 10.517h3.424v-6.208c-0.055-0.437 0.080-0.876 0.372-1.205s0.713-0.516 1.153-0.512c0.939 0 1.461 0.565 1.461 1.632v6.293h3.264v-6.229c-0.059-0.432 0.074-0.868 0.363-1.194s0.706-0.509 1.141-0.502c0.971 0 1.472 0.597 1.472 1.664v6.261h3.445v-7.136c0.070-0.945-0.266-1.876-0.923-2.558-0.658-0.682-1.575-1.052-2.523-1.016-1.449-0.068-2.762 0.847-3.2 2.229h-0.149c-0.253-1.386-1.519-2.351-2.923-2.229-1.388-0.028-2.619 0.883-2.997 2.219h-0.075v-2.027z"></path>
<path d="M32.171 10.784c-0.002 2.993-1.278 5.844-3.509 7.84v13.131h-28.107v-28.096h13.312c2.938-3.202 7.539-4.272 11.588-2.696s6.716 5.476 6.716 9.821zM26.763 10.784c-0.006-2.835-2.306-5.131-5.141-5.131-2.080 0-3.956 1.254-4.751 3.176s-0.353 4.135 1.119 5.604 3.686 1.907 5.607 1.108c1.921-0.799 3.171-2.677 3.166-4.758zM5.963 26.347h17.291v-5.152c-0.539 0.089-1.085 0.136-1.632 0.139-5.824-0.006-10.543-4.726-10.549-10.549 0.005-0.576 0.058-1.15 0.16-1.717h-5.269v17.28z"></path>
</symbol>
</defs>
</svg>
